<?xml version="1.0" encoding="UTF-8" ?>
<!DOCTYPE svg PUBLIC "-//W3C//DTD SVG 1.1//EN" "http://www.w3.org/Graphics/SVG/1.1/DTD/svg11.dtd">
<svg width="512pt" height="512pt" viewBox="0 0 512 512" version="1.1" xmlns="http://www.w3.org/2000/svg">
<path fill="#ffb700" opacity="1.00" d=" M 218.29 30.20 C 236.27 22.01 256.94 20.03 276.21 24.30 C 299.20 29.20 319.87 43.82 332.32 63.74 C 335.97 69.21 339.07 75.00 342.40 80.67 C 393.14 168.56 443.90 256.45 494.64 344.35 C 499.59 352.81 504.50 361.42 507.46 370.81 C 510.40 379.39 511.57 388.45 512.00 397.47 L 512.00 399.52 C 511.47 416.87 506.31 434.12 496.61 448.56 C 485.18 466.37 467.29 479.92 447.01 486.00 C 430.19 491.32 412.38 489.80 395.01 490.03 C 297.35 490.03 199.69 490.03 102.03 490.03 C 92.06 490.07 81.97 490.09 72.18 487.94 C 49.19 483.33 28.38 469.09 15.60 449.46 C 5.83 435.05 0.60 417.80 0.00 400.44 L 0.00 397.72 C 0.50 385.47 2.95 373.23 8.00 362.02 C 10.44 356.90 13.02 351.84 15.96 346.97 C 67.84 257.18 119.69 167.37 171.56 77.57 C 174.12 73.16 176.56 68.68 179.39 64.43 C 188.60 49.52 202.31 37.43 218.29 30.20 M 249.45 63.71 C 238.43 65.12 227.96 70.37 220.33 78.45 C 215.98 82.92 212.92 88.41 209.83 93.78 C 156.13 186.74 102.40 279.69 48.71 372.66 C 41.90 384.06 39.44 398.12 42.91 411.02 C 46.74 426.58 58.45 440.06 73.60 445.50 C 81.34 448.55 89.76 448.80 97.97 448.66 C 204.67 448.65 311.38 448.66 418.08 448.65 C 427.42 448.77 436.92 446.86 445.04 442.12 C 461.18 433.04 471.45 414.51 470.50 396.01 C 470.19 387.51 467.28 379.30 462.96 372.03 C 408.68 278.00 354.40 183.97 300.11 89.94 C 296.68 83.95 292.42 78.34 286.96 74.04 C 276.58 65.60 262.66 61.97 249.45 63.71 Z" />
<path fill="#ffb700" opacity="1.00" d=" M 249.28 166.29 C 260.61 163.22 273.50 168.78 278.92 179.21 C 281.89 184.95 282.59 191.58 282.10 197.96 C 280.18 227.64 278.49 257.34 276.75 287.03 C 276.30 295.36 275.59 303.67 275.70 312.01 C 275.79 318.15 273.28 324.40 268.50 328.35 C 261.93 333.94 251.61 334.30 244.59 329.36 C 239.77 326.12 236.84 320.53 236.39 314.79 C 233.90 275.21 232.15 235.57 229.26 196.01 C 228.37 183.14 236.50 169.71 249.28 166.29 Z" />
<path fill="#ffb700" opacity="1.00" d=" M 250.45 351.57 C 262.05 348.77 274.94 355.33 279.49 366.36 C 282.95 374.83 282.52 385.39 276.78 392.79 C 271.19 400.34 261.35 404.69 252.01 403.10 C 239.90 401.36 229.97 390.22 229.78 377.96 C 229.23 365.71 238.50 354.07 250.45 351.57 Z" />
</svg>
